<svg width="21" height="22" viewBox="0 0 21 22" fill="none" xmlns="http://www.w3.org/2000/svg">
<g clip-path="url(#clip0_8_118)">
<path d="M16.6872 4.81281C20.1025 8.22814 20.1025 13.7719 16.6872 17.1872C13.2719 20.6025 7.72814 20.6025 4.31282 17.1872C0.89749 13.7719 0.89749 8.22814 4.31282 4.81281C7.72814 1.39749 13.2719 1.39749 16.6872 4.81281ZM5.55025 15.9497C8.28499 18.6845 12.715 18.6845 15.4497 15.9497C18.1845 13.215 18.1845 8.78499 15.4497 6.05025C12.715 3.31552 8.28499 3.31552 5.55025 6.05025C2.81552 8.78499 2.81552 13.215 5.55025 15.9497ZM11.1187 11.6187L8.64384 14.0936L7.40641 12.8562L9.88128 10.3813L8.02513 8.52513H12.9749V13.4749L11.1187 11.6187Z" fill="white"/>
</g>
<defs>
<clipPath id="clip0_8_118">
<rect width="21" height="21" fill="white" transform="translate(0 0.5)"/>
</clipPath>
</defs>
</svg>
